<?xml version="1.0" standalone="no"?>
<!DOCTYPE svg PUBLIC "-//W3C//DTD SVG 20010904//EN"
 "http://www.w3.org/TR/2001/REC-SVG-20010904/DTD/svg10.dtd">
<svg version="1.0" xmlns="http://www.w3.org/2000/svg"
 width="256.000000pt" height="256.000000pt" viewBox="0 0 256.000000 256.000000"
 preserveAspectRatio="xMidYMid meet">
<metadata>
Created by potrace 1.14, written by Peter Selinger 2001-2017
</metadata>
<g transform="translate(0.000000,256.000000) scale(0.100000,-0.100000)"
fill="#000000" stroke="none">
<path d="M1288 2505 c-2 -1 -48 -5 -103 -9 -150 -10 -150 -10 -156 -18 -3 -5
-24 -9 -46 -11 -23 -1 -39 -5 -37 -8 1 -3 -19 -11 -45 -18 -27 -7 -65 -21 -85
-32 -20 -10 -36 -16 -36 -12 0 5 -4 4 -8 -2 -10 -14 -79 -48 -97 -48 -8 0 -12
-4 -9 -9 4 -5 -3 -12 -15 -15 -12 -3 -21 -10 -21 -16 0 -6 -3 -8 -6 -4 -4 3
-12 1 -19 -6 -35 -33 -57 -47 -66 -42 -5 4 -8 3 -7 -2 2 -5 -15 -25 -37 -44
-42 -36 -111 -108 -133 -141 -7 -10 -18 -16 -23 -12 -5 3 -8 0 -7 -8 2 -7 -3
-12 -10 -10 -8 1 -11 -2 -7 -8 4 -6 -4 -25 -17 -43 -13 -18 -30 -44 -37 -59
-8 -15 -19 -25 -24 -21 -6 3 -7 1 -4 -5 8 -11 -23 -72 -36 -72 -5 0 -6 -4 -2
-9 6 -11 -15 -61 -26 -61 -5 0 -6 -7 -3 -15 4 -8 1 -15 -5 -15 -6 0 -10 -3 -9
-7 5 -18 -14 -83 -22 -78 -6 3 -7 -1 -4 -9 3 -8 2 -21 -2 -28 -9 -14 -10 -19
-12 -61 -2 -20 -6 -26 -14 -21 -9 5 -9 2 1 -9 7 -9 10 -17 5 -17 -8 0 -12 -49
-17 -228 -1 -28 0 -52 3 -52 3 0 6 -17 6 -38 1 -20 5 -57 9 -82 4 -25 8 -52 9
-60 1 -9 5 -20 8 -25 3 -6 9 -26 13 -45 4 -19 11 -39 15 -45 5 -5 9 -14 10
-20 1 -5 6 -21 11 -33 5 -13 6 -29 2 -35 -3 -7 -3 -9 2 -5 7 7 55 -82 54 -99
0 -3 4 -9 9 -12 6 -3 22 -28 36 -55 14 -27 26 -45 26 -40 0 5 11 -7 24 -26 13
-19 21 -39 18 -44 -3 -5 0 -6 6 -2 6 4 16 -4 23 -16 7 -13 21 -29 31 -36 10
-7 15 -18 12 -24 -4 -6 -2 -8 4 -5 5 4 21 -6 34 -22 14 -15 44 -42 68 -60 24
-17 39 -31 34 -32 -5 0 1 -4 13 -9 15 -6 23 -18 23 -32 -1 -23 -1 -23 -17 -3
-14 18 -15 18 -9 1 4 -13 2 -17 -8 -13 -9 4 -13 0 -12 -11 2 -9 9 -18 17 -20
11 -3 11 -1 -1 8 -13 10 -13 11 0 9 26 -4 49 12 43 28 -4 9 8 4 25 -12 18 -16
32 -33 32 -39 0 -6 -7 0 -16 12 -17 25 -36 30 -28 7 6 -15 4 -16 -51 -19 -16
-1 -46 -12 -65 -24 -19 -12 -38 -22 -42 -22 -13 0 2 -45 19 -58 23 -16 34 -15
27 3 -3 8 -11 13 -17 12 -6 -1 -12 8 -13 20 -1 13 3 23 8 23 5 0 6 -10 3 -21
-5 -14 -3 -19 3 -15 6 3 18 -6 27 -22 16 -26 55 -42 55 -21 0 5 5 9 11 9 8 0
8 -4 1 -12 -6 -7 -10 -17 -9 -23 1 -5 -7 -11 -18 -12 -19 -3 -19 -3 -1 5 18 8
18 9 3 15 -9 3 -17 2 -17 -4 0 -6 -7 -3 -16 5 -8 9 -20 14 -25 11 -5 -4 -9 -1
-9 5 0 6 -13 8 -32 5 -21 -3 -28 -2 -19 4 9 6 10 11 2 15 -6 4 -12 2 -12 -3
-1 -6 -3 -15 -4 -21 -1 -5 -3 -13 -4 -17 -1 -5 -6 -1 -12 7 -8 11 -12 12 -16
2 -2 -6 -8 -10 -12 -8 -4 3 -8 -1 -8 -9 0 -11 4 -12 13 -4 16 13 37 2 28 -14
-4 -7 -3 -8 2 -4 5 5 9 14 9 19 0 6 6 13 14 16 9 3 11 0 6 -9 -6 -11 -5 -12 6
-1 11 10 17 8 31 -10 11 -14 16 -16 12 -6 -7 19 15 19 39 0 9 -8 28 -10 47 -7
23 4 29 2 24 -6 -5 -8 -3 -9 6 -4 7 4 15 2 20 -5 5 -8 9 -8 13 4 4 9 3 15 -1
14 -11 -3 -52 13 -52 20 0 4 5 14 11 22 8 13 9 12 7 -4 -2 -10 3 -21 10 -23 6
-3 10 1 9 9 -2 7 -2 10 0 5 3 -4 10 -4 15 -1 6 4 8 2 4 -4 -3 -6 -2 -13 3 -16
5 -3 8 -14 6 -24 -1 -9 0 -11 2 -4 3 7 9 9 15 6 7 -5 8 -2 3 6 -6 10 -4 12 10
6 14 -5 24 0 37 16 11 13 16 16 12 7 -3 -10 -1 -20 5 -24 6 -3 11 -12 11 -18
0 -7 -4 -6 -10 3 -7 12 -9 10 -7 -8 2 -28 14 -28 23 0 l6 21 13 -22 c10 -20
13 -21 18 -7 4 10 3 15 -1 12 -5 -3 -9 1 -9 9 0 8 4 12 8 9 4 -2 9 -1 12 3 2
5 2 3 1 -4 -2 -7 1 -15 6 -18 6 -4 10 2 11 12 0 16 1 16 9 -2 7 -18 8 -19 15
-2 9 21 22 22 22 2 0 -8 -5 -11 -10 -8 -6 3 -7 1 -3 -5 4 -6 14 -8 24 -5 15 6
16 5 2 -13 -9 -13 -10 -15 -1 -7 11 9 20 8 40 -4 l26 -17 -22 23 c-13 12 -23
29 -22 39 0 14 2 14 9 -3 5 -11 9 -15 10 -10 0 6 5 2 11 -7 11 -20 29 -24 29
-7 0 5 -4 8 -8 5 -5 -3 -9 1 -9 8 0 7 6 13 13 13 7 0 10 -5 7 -10 -4 -7 1 -8
12 -3 15 5 16 4 5 -9 -8 -9 -8 -15 -2 -15 6 0 14 4 17 10 3 5 11 10 17 10 6 0
5 -7 -3 -17 -13 -15 -12 -15 8 -5 29 16 41 15 19 -1 -16 -12 -16 -14 -3 -14
23 0 29 25 9 36 -15 9 -14 10 5 8 12 0 19 -5 16 -11 -4 -5 1 -7 10 -3 22 8 22
-2 1 -18 -15 -10 -14 -12 7 -10 20 2 24 7 22 31 -1 16 1 21 4 12 8 -32 30 -18
24 15 -1 5 3 6 8 2 6 -3 8 -11 5 -18 -3 -8 6 -13 26 -13 16 -1 27 2 25 6 -3 5
0 12 7 16 7 4 10 4 6 -1 -4 -4 0 -14 10 -22 16 -13 16 -13 -2 -11 -10 2 -20
-3 -22 -10 -1 -7 0 -8 3 -2 3 7 12 6 27 -4 20 -13 23 -13 23 2 0 10 -4 23 -10
30 -7 9 -7 16 0 23 8 8 11 6 10 -7 -2 -13 4 -18 16 -16 12 2 21 -4 24 -19 6
-20 7 -20 19 7 7 16 13 23 13 16 1 -7 5 -11 10 -7 5 3 17 -5 25 -17 9 -12 16
-17 16 -10 0 15 46 16 55 2 4 -6 11 -8 16 -4 5 3 7 10 4 15 -8 12 28 -2 37
-15 5 -7 8 -6 8 3 0 11 3 11 17 0 11 -9 14 -10 9 -2 -9 16 45 14 57 -2 5 -6 7
-3 3 7 -3 10 -1 18 5 18 6 0 7 6 3 13 -4 6 -4 9 1 5 4 -4 15 -2 24 4 9 7 7 2
-4 -11 -17 -21 -18 -23 -3 -18 10 3 20 2 23 -3 7 -11 35 -2 35 10 0 5 -9 7
-19 5 -14 -3 -18 1 -14 12 5 12 7 12 14 1 5 -7 9 -9 9 -4 0 6 4 6 10 0 12 -12
70 -6 70 7 0 5 -6 9 -14 9 -8 0 -18 5 -21 11 -4 5 10 3 31 -6 38 -16 64 -33
33 -22 -10 3 -26 -3 -38 -14 -24 -23 -29 -38 -5 -18 9 7 21 14 28 15 6 1 20 6
30 10 15 6 17 4 11 -7 -8 -12 -6 -12 8 0 12 9 17 10 17 2 0 -7 4 -9 10 -6 17
11 11 24 -10 20 -23 -4 -32 6 -21 24 6 10 10 9 15 -4 4 -13 10 -14 19 -7 7 6
19 7 26 3 9 -6 10 -11 2 -15 -6 -4 -11 -12 -11 -19 0 -6 7 -1 16 11 19 28 44
29 39 2 -2 -12 0 -18 6 -15 5 4 6 11 3 17 -5 7 -1 9 9 5 17 -6 20 15 5 39 -5
7 2 10 20 9 15 0 33 5 41 12 10 11 16 11 27 2 11 -9 18 -8 31 2 14 12 16 12 9
0 -6 -9 -5 -12 4 -9 7 2 14 12 16 22 4 29 21 41 37 28 23 -19 27 -2 6 21 -11
12 -15 23 -9 25 18 6 11 21 -10 19 -11 -1 -20 -5 -20 -9 0 -4 -5 -8 -11 -8 -8
0 -9 4 0 13 6 8 8 17 4 20 -3 4 -12 -1 -20 -11 -13 -15 -13 -15 -3 6 6 12 8
27 4 33 -4 7 1 7 15 -1 12 -6 19 -15 16 -20 -3 -5 -2 -11 3 -14 4 -2 14 4 20
15 10 16 10 19 0 17 -7 -2 -29 8 -48 22 -19 13 -30 18 -24 10 6 -8 10 -24 8
-34 -4 -27 -44 -50 -44 -25 0 5 4 8 9 5 5 -3 14 1 21 9 11 13 9 15 -9 12 -13
-2 -27 -10 -33 -18 -8 -11 -9 -11 -4 3 3 10 1 20 -4 23 -6 4 -10 0 -10 -7 0
-10 -3 -9 -9 2 -12 17 -4 33 11 24 8 -5 9 -1 5 10 -4 9 -3 15 2 12 4 -3 23 10
42 30 18 19 39 32 47 29 7 -2 11 -1 8 4 -7 11 49 63 59 54 4 -5 5 -3 2 3 -8
14 17 37 28 26 5 -4 5 -2 2 4 -8 15 31 56 45 48 7 -4 8 -2 4 5 -7 10 13 41 59
94 8 9 12 17 8 17 -5 1 1 9 12 18 11 10 21 24 23 32 2 7 12 26 22 40 11 15 17
30 13 34 -3 3 -1 6 5 6 7 0 11 3 10 8 -1 4 5 21 12 37 7 17 25 65 40 108 14
42 29 75 31 72 3 -3 3 9 1 26 -4 24 -2 30 8 24 8 -5 11 -4 6 3 -3 6 -2 42 4
79 12 72 17 274 7 289 -3 5 -4 28 -4 51 1 22 -1 39 -5 36 -5 -2 -8 6 -9 19 -1
38 -30 152 -49 193 -47 102 -64 142 -63 152 0 7 -4 10 -10 6 -6 -4 -8 0 -4 11
5 11 3 15 -5 10 -8 -5 -9 -2 -5 10 4 9 3 15 -2 12 -8 -5 -14 3 -21 29 -2 6
-11 16 -21 23 -11 7 -19 20 -19 28 0 8 -4 14 -8 14 -4 0 -15 12 -24 28 -9 15
-39 49 -66 77 -28 27 -48 54 -45 60 4 5 3 7 -1 3 -10 -8 -122 82 -118 95 1 4
-2 6 -7 3 -5 -4 -15 -1 -23 6 -18 17 -81 54 -148 85 -30 15 -56 30 -58 34 -2
4 -10 5 -18 2 -8 -3 -14 0 -14 6 0 6 -3 10 -7 9 -5 -1 -37 7 -73 19 -36 11
-81 25 -100 29 -19 4 -38 9 -42 10 -5 1 -26 2 -49 3 -22 0 -38 5 -35 10 6 10
-19 9 -29 0 -3 -3 -25 -3 -50 1 -25 4 -46 6 -47 5z m656 -2233 c2 -4 -4 -8
-14 -8 -10 0 -16 4 -14 8 3 4 9 8 14 8 5 0 11 -4 14 -8z m-1389 -32 c3 -6 -1
-7 -9 -4 -18 7 -21 14 -7 14 6 0 13 -4 16 -10z m35 1 c0 -6 -4 -12 -8 -15 -5
-3 -9 1 -9 9 0 8 4 15 9 15 4 0 8 -4 8 -9z m-46 -19 c2 -4 0 -14 -6 -22 -8
-12 -9 -11 -4 4 5 15 2 17 -14 13 -11 -3 -20 -1 -20 4 0 11 37 12 44 1z m1500
0 c3 -5 -1 -9 -9 -9 -8 0 -12 4 -9 9 3 4 7 8 9 8 2 0 6 -4 9 -8z m41 -12 c3
-6 -1 -7 -9 -4 -18 7 -21 14 -7 14 6 0 13 -4 16 -10z m-1479 -13 c4 -3 -3 -5
-14 -2 -13 2 -26 -3 -32 -13 -5 -9 -10 -12 -10 -6 0 25 38 40 56 21z m-51 -46
c-6 -5 -25 10 -25 20 0 5 6 4 14 -3 8 -7 12 -15 11 -17z m92 16 c0 -8 -6 -14
-14 -14 -9 0 -10 4 -2 14 6 7 12 13 14 13 1 0 2 -6 2 -13z m1324 -4 c13 -16
12 -17 -3 -4 -17 13 -22 21 -14 21 2 0 10 -8 17 -17z m63 -4 c-8 -14 -21 -11
-21 5 0 8 6 12 14 9 7 -3 10 -9 7 -14z m-1339 -19 c3 -6 -1 -7 -9 -4 -18 7
-21 14 -7 14 6 0 13 -4 16 -10z m208 -15 c-3 -9 -8 -14 -10 -11 -3 3 -2 9 2
15 9 16 15 13 8 -4z m-228 -5 c3 -5 1 -10 -4 -10 -6 0 -11 5 -11 10 0 6 2 10
4 10 3 0 8 -4 11 -10z m111 -2 c4 -7 3 -8 -4 -4 -7 4 -12 2 -12 -3 0 -6 -5
-11 -11 -11 -8 0 -8 5 1 15 15 18 17 18 26 3z m1069 -8 c4 -6 11 -7 17 -4 7 4
8 2 4 -5 -6 -9 -11 -9 -22 0 -7 6 -21 9 -29 5 -9 -3 -13 -2 -10 4 8 13 32 13
40 0z m55 -11 c0 -6 -4 -7 -10 -4 -5 3 -10 11 -10 16 0 6 5 7 10 4 6 -3 10
-11 10 -16z m-866 3 c3 -5 -1 -9 -9 -9 -8 0 -12 4 -9 9 3 4 7 8 9 8 2 0 6 -4
9 -8z m503 1 c-4 -3 0 -14 8 -23 14 -15 14 -18 1 -23 -10 -4 -13 -1 -10 7 3 8
0 17 -5 21 -11 6 -6 25 6 25 4 0 3 -3 0 -7z m138 -13 c3 -5 1 -10 -4 -10 -6 0
-11 5 -11 10 0 6 2 10 4 10 3 0 8 -4 11 -10z m-275 -4 c0 -2 -8 -10 -17 -17
-16 -13 -17 -12 -4 4 13 16 21 21 21 13z m40 -6 c0 -5 -2 -10 -4 -10 -3 0 -8
5 -11 10 -3 6 -1 10 4 10 6 0 11 -4 11 -10z m41 -3 c-6 -8 -8 -17 -4 -21 4 -4
0 -4 -10 0 -17 6 -17 7 0 20 23 17 28 18 14 1z m29 -17 c-8 -5 -17 -6 -20 -3
-3 3 1 8 8 10 6 3 9 10 6 16 -4 7 -1 7 7 -1 12 -11 12 -14 -1 -22z m-152 -5
c-3 -3 -9 2 -12 12 -6 14 -5 15 5 6 7 -7 10 -15 7 -18z m66 -1 c5 -14 4 -15
-9 -4 -17 14 -19 20 -6 20 5 0 12 -7 15 -16z"/>
<path d="M2090 339 c0 -5 5 -7 10 -4 6 3 10 8 10 11 0 2 -4 4 -10 4 -5 0 -10
-5 -10 -11z"/>
<path d="M2155 331 c-3 -5 -2 -12 3 -15 5 -3 9 1 9 9 0 17 -3 19 -12 6z"/>
<path d="M1981 316 c-7 -8 -8 -16 -4 -18 13 -7 33 -4 33 5 0 4 0 12 0 17 0 14
-16 12 -29 -4z m23 -4 c3 -5 -1 -9 -9 -9 -8 0 -12 4 -9 9 3 4 7 8 9 8 2 0 6
-4 9 -8z"/>
<path d="M2077 309 c7 -7 15 -10 18 -7 3 3 -2 9 -12 12 -14 6 -15 5 -6 -5z"/>
<path d="M433 295 c0 -7 6 -11 14 -8 7 3 13 6 13 8 0 2 -6 5 -13 8 -8 3 -14
-1 -14 -8z"/>
<path d="M520 299 c0 -5 -4 -8 -8 -5 -5 3 -25 -4 -45 -14 -34 -18 -37 -19 -46
-2 -10 16 -10 16 -11 0 0 -10 5 -19 10 -19 6 -1 16 -2 23 -3 6 -1 17 5 23 13
9 11 15 11 30 2 14 -9 15 -11 2 -7 -15 4 -46 -19 -36 -29 10 -10 64 34 65 53
1 12 0 22 -3 22 -2 0 -4 -5 -4 -11z"/>
<path d="M2120 296 c15 -15 12 -26 -6 -26 -13 0 -14 -3 -4 -15 6 -8 9 -19 5
-25 -7 -12 12 -40 27 -40 6 0 5 7 -2 15 -7 9 -10 18 -7 22 4 3 2 12 -4 19 -7
9 -6 12 8 9 10 -1 17 -8 16 -14 -2 -6 2 -11 8 -11 6 0 9 7 5 15 -10 27 3 16
20 -16 12 -23 12 -30 2 -25 -7 4 -6 1 3 -5 15 -11 14 -14 -3 -31 -19 -19 -25
-44 -8 -33 6 3 10 13 10 21 0 8 5 12 10 9 7 -4 7 -12 0 -25 -5 -10 -10 -22
-10 -27 1 -4 7 4 16 19 9 17 20 25 29 22 8 -4 15 -1 15 4 0 6 -9 9 -21 7 -13
-3 -19 0 -16 8 2 7 11 11 21 9 9 -2 16 2 16 8 0 6 -4 9 -8 6 -4 -2 -13 4 -20
15 -7 10 -8 19 -3 19 6 0 13 -5 16 -10 4 -6 11 -8 16 -5 5 4 9 -2 10 -12 0
-11 3 -13 6 -5 6 15 -16 44 -27 37 -5 -3 -15 4 -23 15 -9 13 -20 18 -31 14
-13 -5 -15 -2 -10 12 6 18 6 18 -8 0 -15 -19 -16 -19 -26 1 -6 11 -9 22 -7 25
3 3 -2 5 -10 5 -11 0 -12 -4 -5 -11z m90 -57 c0 -5 -4 -9 -10 -9 -5 0 -10 7
-10 16 0 8 5 12 10 9 6 -3 10 -10 10 -16z m8 -44 c-3 -3 -9 2 -12 12 -6 14 -5
15 5 6 7 -7 10 -15 7 -18z"/>
<path d="M590 279 c0 -5 5 -7 10 -4 6 3 10 8 10 11 0 2 -4 4 -10 4 -5 0 -10
-5 -10 -11z"/>
<path d="M310 259 c0 -5 5 -7 10 -4 6 3 10 8 10 11 0 2 -4 4 -10 4 -5 0 -10
-5 -10 -11z"/>
<path d="M392 256 c2 -10 -3 -21 -11 -24 -8 -3 -11 0 -7 7 4 6 2 11 -4 11 -7
0 -10 -7 -6 -15 3 -8 1 -15 -4 -15 -6 0 -10 7 -10 15 0 8 -5 15 -10 15 -7 0
-7 -6 -1 -18 7 -13 6 -23 -1 -30 -11 -11 0 -17 25 -13 4 0 7 -3 7 -7 0 -18
-13 -20 -37 -5 -17 11 -21 19 -14 26 6 6 11 15 11 21 0 5 -6 1 -14 -10 -9 -12
-11 -23 -5 -30 5 -6 6 -14 2 -18 -4 -4 1 -4 11 0 15 6 17 4 11 -7 -4 -8 -5
-11 0 -7 4 4 14 3 22 -4 7 -6 16 -8 20 -4 3 3 1 6 -6 6 -7 0 -9 5 -6 10 5 8
11 7 21 -1 12 -10 18 -9 31 4 16 15 18 15 37 -1 19 -17 19 -17 4 6 -9 14 -14
36 -11 52 3 25 1 28 -16 25 -12 -2 -25 3 -31 13 -9 15 -10 15 -8 -2z m40 -42
c-2 -11 -8 -22 -14 -25 -5 -3 -9 -10 -9 -15 1 -5 -5 -9 -11 -9 -7 0 -12 6 -10
13 2 11 -10 16 -30 13 -18 -3 -6 15 20 30 35 20 58 17 54 -7z"/>
<path d="M391 216 c-9 -10 -9 -16 -1 -21 16 -10 31 7 21 23 -6 10 -10 10 -20
-2z"/>
<path d="M2292 258 c2 -7 -3 -12 -9 -10 -7 1 -13 -2 -13 -8 0 -14 16 -12 29 4
8 10 9 16 1 21 -6 4 -9 1 -8 -7z"/>
<path d="M290 220 c-9 -6 -10 -10 -3 -10 6 0 15 5 18 10 8 12 4 12 -15 0z"/>
<path d="M2147 213 c3 -7 10 -13 17 -13 6 -1 -1 -8 -16 -16 -16 -8 -28 -20
-28 -26 0 -6 9 -3 20 7 11 10 23 15 27 12 3 -4 1 -7 -6 -7 -7 0 -9 -5 -5 -12
5 -7 3 -8 -6 -3 -9 6 -11 4 -5 -5 6 -10 12 -7 26 11 12 17 15 27 7 36 -5 7 -7
16 -5 20 3 5 -3 9 -13 9 -10 0 -16 -6 -13 -13z"/>
<path d="M2313 215 c0 -8 4 -12 9 -9 5 3 6 10 3 15 -9 13 -12 11 -12 -6z"/>
<path d="M2291 210 c0 -8 4 -22 9 -30 12 -18 12 -2 0 25 -6 13 -9 15 -9 5z"/>
<path d="M230 200 c0 -5 5 -10 11 -10 5 0 7 5 4 10 -3 6 -8 10 -11 10 -2 0 -4
-4 -4 -10z"/>
<path d="M275 189 c-4 -6 -5 -12 -2 -15 2 -3 7 2 10 11 7 17 1 20 -8 4z"/>
<path d="M2335 189 c-4 -6 -5 -12 -2 -15 2 -3 7 2 10 11 7 17 1 20 -8 4z"/>
<path d="M2079 170 c-3 -20 -5 -25 -13 -38 -4 -7 -14 -11 -22 -8 -8 3 -14 0
-14 -6 0 -6 -8 -4 -19 6 -16 14 -20 15 -30 2 -7 -8 -20 -13 -30 -11 -10 2 -18
-3 -18 -10 0 -12 6 -11 35 1 26 10 39 11 46 4 8 -8 6 -9 -5 -5 -10 4 -20 1
-24 -6 -5 -7 -3 -10 6 -7 8 3 22 1 31 -4 13 -6 16 -5 12 5 -7 20 32 29 47 11
6 -8 17 -14 23 -14 6 0 3 5 -7 11 -9 6 -15 14 -12 20 4 5 13 3 21 -6 9 -8 20
-15 27 -15 6 0 2 7 -9 15 -17 13 -17 14 -2 15 9 0 20 -4 23 -10 3 -5 10 -10
16 -10 5 0 1 8 -8 18 -10 11 -21 17 -26 15 -4 -2 -10 2 -13 11 -7 17 -33 29
-35 16z m31 -33 c0 -6 -3 -7 -7 -4 -3 4 -13 1 -22 -6 -14 -10 -14 -10 -4 4 7
9 10 19 6 23 -4 4 0 4 10 0 9 -3 17 -11 17 -17z"/>
<path d="M2268 173 c7 -3 16 -2 19 1 4 3 -2 6 -13 5 -11 0 -14 -3 -6 -6z"/>
<path d="M455 100 c-3 -5 -1 -10 4 -10 6 0 11 5 11 10 0 6 -2 10 -4 10 -3 0
-8 -4 -11 -10z"/>
<path d="M510 96 c0 -2 8 -10 18 -17 15 -13 16 -12 3 4 -13 16 -21 21 -21 13z"/>
<path d="M707 86 c-17 -13 -17 -14 0 -20 10 -4 14 -4 10 0 -4 4 -2 13 4 21 14
17 9 16 -14 -1z"/>
<path d="M2055 89 c-4 -6 -5 -12 -2 -15 2 -3 7 2 10 11 7 17 1 20 -8 4z"/>
<path d="M1945 80 c-3 -6 1 -7 9 -4 18 7 21 14 7 14 -6 0 -13 -4 -16 -10z"/>
<path d="M820 58 c0 -4 7 -8 15 -8 8 0 15 4 15 8 0 5 -7 9 -15 9 -8 0 -15 -4
-15 -9z"/>
<path d="M1124 48 c-3 -4 -4 -8 -2 -9 25 -6 35 -5 35 5 0 14 -25 17 -33 4z"/>
<path d="M1171 44 c0 -11 3 -14 6 -6 3 7 2 16 -1 19 -3 4 -6 -2 -5 -13z"/>
<path d="M1263 45 c0 -8 4 -12 9 -9 4 3 8 9 8 15 0 5 -4 9 -8 9 -5 0 -9 -7 -9
-15z"/>
<path d="M1311 48 c-1 -11 6 -16 18 -15 12 1 17 6 14 15 -4 10 -8 11 -13 2 -6
-9 -9 -9 -13 1 -4 10 -6 9 -6 -3z"/>
</g>
</svg>
